<?xml version="1.0" encoding="UTF-8"?>
<!-- Created with Inkscape (http://www.inkscape.org/) -->
<svg width="26.721mm" height="26.718mm" version="1.1" viewBox="0 0 26.721 26.718" xmlns="http://www.w3.org/2000/svg">
 <g transform="translate(-68.418 -129.09)">
  <g transform="matrix(.33042 0 0 .33039 15.246 78)">
   <path d="m201.36 155.03v80.074a40.037 40.037 0 0 0 40.037-40.037 40.037 40.037 0 0 0-40.037-40.037zm11.694 22.453a16.093 17.584 0 0 1 16.093 17.583 16.093 17.584 0 0 1-16.093 17.584zm-51.712 17.071a40.037 40.037 0 0 0-0.019 0.51263 40.037 40.037 0 0 0 0.019 0.51263z" fill="#2ca089" stop-color="#000000" stroke="#dbdee3" stroke-linecap="square" stroke-linejoin="bevel" stroke-width=".52917"/>
   <path d="m201.36 155.03a40.037 40.037 0 0 0-9.3007 1.1224v77.829a40.037 40.037 0 0 0 9.3007 1.1229zm-14.098 2.5916a40.037 40.037 0 0 0-9.4305 5.086v64.719a40.037 40.037 0 0 0 9.4305 5.086zm-14.228 9.1974a40.037 40.037 0 0 0-11.691 27.736v1.0253a40.037 40.037 0 0 0 11.691 27.735z" fill="#8c8c8c" stop-color="#000000" stroke="#fff" stroke-linecap="square" stroke-linejoin="bevel" stroke-width=".52917"/>
   <path d="m200.86 164.12-8.8444 5.9283v52.653l8.8331 4.7403zm-13.642 9.1436-8.0228 5.3774 8.0228 5.7356zm0 12.467-9.4305 5.3604v10.812l9.4305 5.1625zm-14.228 8.0879-4.8922 2.7807 4.8922 2.6779zm14.228 18.736-6.6803 3.9858 6.6803 3.5848z" fill="none" stop-color="#000000" stroke="#fff" stroke-linecap="square" stroke-linejoin="bevel" stroke-opacity=".22145" stroke-width="1.0583"/>
   <path d="m172.76 194.55-3.6185 2.0292 3.6433 2.0017z" fill="#fff" fill-opacity=".67301" stop-color="#000000"/>
   <circle cx="201.36" cy="195.06" r="40.037" fill-opacity="0" stop-color="#000000" stroke="#fff" stroke-linecap="square" stroke-linejoin="bevel" stroke-width=".79375"/>
  </g>
 </g>
</svg>
